HIERARCHY
ROOT Hips
{
    OFFSET   0.000000   0.000000   0.000000
    CHANNELS 6 Xposition Yposition Zposition Zrotation Xrotation Yrotation
    JOINT Chest
    {
        OFFSET   0.000000   8.007230   0.000000
        CHANNELS 3 Zrotation Xrotation Yrotation
        JOINT Chest2
        {
            OFFSET   0.000000  22.077100   0.000000
            CHANNELS 3 Zrotation Xrotation Yrotation
            JOINT Neck
            {
                OFFSET   0.000000  23.254800  -0.000021
                CHANNELS 3 Zrotation Xrotation Yrotation
                JOINT Head
                {
                    OFFSET   0.000000  14.370000   1.956610
                    CHANNELS 3 Zrotation Xrotation Yrotation
                    End Site
                    {
                        OFFSET   0.000000  19.566000   0.000000
                    }
                }
            }
            JOINT LeftCollar
            {
                OFFSET   3.911900  19.017000  -0.467063
                CHANNELS 3 Zrotation Xrotation Yrotation
                JOINT LeftShoulder
                {
                    OFFSET  10.383700   0.000000   0.000000
                    CHANNELS 3 Zrotation Xrotation Yrotation
                    JOINT LeftElbow
                    {
                        OFFSET  26.662100   0.001529   0.000325
                        CHANNELS 3 Zrotation Xrotation Yrotation
                        JOINT LeftWrist
                        {
                            OFFSET  28.869000  -0.000011  -0.000096
                            CHANNELS 3 Zrotation Xrotation Yrotation
                            JOINT LeftFinger0
                            {
                                OFFSET   2.044650  -2.323460   3.252850
                                CHANNELS 3 Zrotation Xrotation Yrotation
                                JOINT LeftFinger01
                                {
                                    OFFSET   3.088130   0.000000   0.000000
                                    CHANNELS 3 Zrotation Xrotation Yrotation
                                    JOINT LeftFinger02
                                    {
                                        OFFSET   2.639460   0.000000   0.000000
                                        CHANNELS 3 Zrotation Xrotation Yrotation
                                        End Site
                                        {
                                            OFFSET   2.582190   0.000000   0.000000
                                        }
                                    }
                                }
                            }
                            JOINT LeftFinger1
                            {
                                OFFSET   8.364480   0.000000   3.252850
                                CHANNELS 3 Zrotation Xrotation Yrotation
                                JOINT LeftFinger11
                                {
                                    OFFSET   4.646930   0.000000   0.000000
                                    CHANNELS 3 Zrotation Xrotation Yrotation
                                    JOINT LeftFinger12
                                    {
                                        OFFSET   2.323460   0.000000   0.000000
                                        CHANNELS 3 Zrotation Xrotation Yrotation
                                        End Site
                                        {
                                            OFFSET   2.273050   0.000000   0.000000
                                        }
                                    }
                                }
                            }
                            JOINT LeftFinger2
                            {
                                OFFSET   8.364480   0.000016   1.078090
                                CHANNELS 3 Zrotation Xrotation Yrotation
                                JOINT LeftFinger21
                                {
                                    OFFSET   5.111620   0.000000   0.000000
                                    CHANNELS 3 Zrotation Xrotation Yrotation
                                    JOINT LeftFinger22
                                    {
                                        OFFSET   2.788160   0.000017   0.000000
                                        CHANNELS 3 Zrotation Xrotation Yrotation
                                        End Site
                                        {
                                            OFFSET   2.727660   0.000000   0.000000
                                        }
                                    }
                                }
                            }
                            JOINT LeftFinger3
                            {
                                OFFSET   7.899780   0.000015  -1.078090
                                CHANNELS 3 Zrotation Xrotation Yrotation
                                JOINT LeftFinger31
                                {
                                    OFFSET   4.646920   0.000000   0.000000
                                    CHANNELS 3 Zrotation Xrotation Yrotation
                                    JOINT LeftFinger32
                                    {
                                        OFFSET   2.323470   0.000000   0.000000
                                        CHANNELS 3 Zrotation Xrotation Yrotation
                                        End Site
                                        {
                                            OFFSET   2.273050   0.000000   0.000000
                                        }
                                    }
                                }
                            }
                            JOINT LeftFinger4
                            {
                                OFFSET   7.435090   0.000000  -3.252850
                                CHANNELS 3 Zrotation Xrotation Yrotation
                                JOINT LeftFinger41
                                {
                                    OFFSET   3.717550   0.000000   0.000000
                                    CHANNELS 3 Zrotation Xrotation Yrotation
                                    JOINT LeftFinger42
                                    {
                                        OFFSET   1.858760   0.000000   0.000000
                                        CHANNELS 3 Zrotation Xrotation Yrotation
                                        End Site
                                        {
                                            OFFSET   1.818440   0.000000   0.000000
                                        }
                                    }
                                }
                            }
                        }
                    }
                }
            }
            JOINT RightCollar
            {
                OFFSET  -3.911900  19.017000  -0.467062
                CHANNELS 3 Zrotation Xrotation Yrotation
                JOINT RightShoulder
                {
                    OFFSET -10.383700   0.000015   0.000000
                    CHANNELS 3 Zrotation Xrotation Yrotation
                    JOINT RightElbow
                    {
                        OFFSET -26.662100   0.001341   0.000385
                        CHANNELS 3 Zrotation Xrotation Yrotation
                        JOINT RightWrist
                        {
                            OFFSET -28.869000   0.000025  -0.000080
                            CHANNELS 3 Zrotation Xrotation Yrotation
                            JOINT RightFinger0
                            {
                                OFFSET  -2.044650  -2.323490   3.252850
                                CHANNELS 3 Zrotation Xrotation Yrotation
                                JOINT RightFinger01
                                {
                                    OFFSET  -3.088130   0.000000   0.000000
                                    CHANNELS 3 Zrotation Xrotation Yrotation
                                    JOINT RightFinger02
                                    {
                                        OFFSET  -2.639460   0.000000   0.000000
                                        CHANNELS 3 Zrotation Xrotation Yrotation
                                        End Site
                                        {
                                            OFFSET  -2.582190   0.000000   0.000000
                                        }
                                    }
                                }
                            }
                            JOINT RightFinger1
                            {
                                OFFSET  -8.364480   0.000000   3.252850
                                CHANNELS 3 Zrotation Xrotation Yrotation
                                JOINT RightFinger11
                                {
                                    OFFSET  -4.646930   0.000000   0.000000
                                    CHANNELS 3 Zrotation Xrotation Yrotation
                                    JOINT RightFinger12
                                    {
                                        OFFSET  -2.323470   0.000000   0.000000
                                        CHANNELS 3 Zrotation Xrotation Yrotation
                                        End Site
                                        {
                                            OFFSET  -2.273050   0.000000   0.000000
                                        }
                                    }
                                }
                            }
                            JOINT RightFinger2
                            {
                                OFFSET  -8.364480   0.000000   1.078090
                                CHANNELS 3 Zrotation Xrotation Yrotation
                                JOINT RightFinger21
                                {
                                    OFFSET  -5.111610   0.000000   0.000000
                                    CHANNELS 3 Zrotation Xrotation Yrotation
                                    JOINT RightFinger22
                                    {
                                        OFFSET  -2.788160   0.000000   0.000000
                                        CHANNELS 3 Zrotation Xrotation Yrotation
                                        End Site
                                        {
                                            OFFSET  -2.727660   0.000000   0.000000
                                        }
                                    }
                                }
                            }
                            JOINT RightFinger3
                            {
                                OFFSET  -7.899780   0.000000  -1.078090
                                CHANNELS 3 Zrotation Xrotation Yrotation
                                JOINT RightFinger31
                                {
                                    OFFSET  -4.646920   0.000000   0.000000
                                    CHANNELS 3 Zrotation Xrotation Yrotation
                                    JOINT RightFinger32
                                    {
                                        OFFSET  -2.323470   0.000000   0.000000
                                        CHANNELS 3 Zrotation Xrotation Yrotation
                                        End Site
                                        {
                                            OFFSET  -2.273050   0.000000   0.000000
                                        }
                                    }
                                }
                            }
                            JOINT RightFinger4
                            {
                                OFFSET  -7.435090   0.000000  -3.252850
                                CHANNELS 3 Zrotation Xrotation Yrotation
                                JOINT RightFinger41
                                {
                                    OFFSET  -3.717550   0.000000   0.000000
                                    CHANNELS 3 Zrotation Xrotation Yrotation
                                    JOINT RightFinger42
                                    {
                                        OFFSET  -1.858770   0.000000   0.000000
                                        CHANNELS 3 Zrotation Xrotation Yrotation
                                        End Site
                                        {
                                            OFFSET  -1.818440   0.000000   0.000000
                                        }
                                    }
                                }
                            }
                        }
                    }
                }
            }
        }
    }
    JOINT LeftHip
    {
        OFFSET   9.783010   0.000000   0.000000
        CHANNELS 3 Zrotation Xrotation Yrotation
        JOINT LeftKnee
        {
            OFFSET   0.000070 -41.789100   0.000028
            CHANNELS 3 Zrotation Xrotation Yrotation
            JOINT LeftAnkle
            {
                OFFSET   0.000087 -41.133200  -0.000100
                CHANNELS 3 Zrotation Xrotation Yrotation
                JOINT LeftToe
                {
                    OFFSET   0.000000  -6.358960  14.674500
                    CHANNELS 3 Zrotation Xrotation Yrotation
                    End Site
                    {
                        OFFSET   0.000000   0.000000   3.913200
                    }
                }
            }
        }
    }
    JOINT RightHip
    {
        OFFSET  -9.783020   0.000000   0.000000
        CHANNELS 3 Zrotation Xrotation Yrotation
        JOINT RightKnee
        {
            OFFSET   0.000044 -41.789100  -0.000870
            CHANNELS 3 Zrotation Xrotation Yrotation
            JOINT RightAnkle
            {
                OFFSET  -0.000090 -41.133200  -0.000245
                CHANNELS 3 Zrotation Xrotation Yrotation
                JOINT RightToe
                {
                    OFFSET   0.000000  -6.358960  14.674500
                    CHANNELS 3 Zrotation Xrotation Yrotation
                    End Site
                    {
                        OFFSET   0.000000   0.000000   3.913200
                    }
                }
            }
        }
    }
}
MOTION
Frames: 4
Frame Time:   0.016667
  0.855190  90.063800   1.496140  -1.655920  -0.353902  -1.073300   0.133134   1.409500  -0.368114   0.275456   2.818130  -0.739847   2.182890   0.474386  -0.013979   3.586760   0.958129   4.726320  -2.714340   1.163050   4.133850 -73.977700  17.616700   2.302180  -4.677320  -7.269850 -16.489500  14.612300  -0.797198  12.435900  45.352400  34.174100 -72.899300 -16.202800   0.000339   0.000190  -3.101410   0.007732  -0.005160 -26.097300   7.300350 -14.542800 -22.115500  -0.000126   0.000096 -15.483000  -0.002659   0.000000 -28.171500   3.543410  -6.583170 -34.869600  -0.005246  -0.002673 -23.223100  -0.004933  -0.003082 -24.285600   2.802330  -6.184040 -24.437100   0.000226   0.000805 -16.275100   0.000000   0.000582 -26.978900   1.685160  -3.323720 -40.540900  -0.000461   0.000000 -27.000300  -0.001358  -0.000727   9.988130   2.374170   3.660100  69.404700   8.410970  -1.837650   2.224500  -4.967780  13.457900 -17.030100 -14.783400  -2.503670 -35.749500  29.533400  66.629300  31.602600   0.001921  -0.001067  10.817500   0.002267  -0.003473  31.819600   2.254700   3.628080  26.092600  -0.004134   0.002329  18.264900   0.002781   0.002054  28.358500  -2.974070  -5.490620  36.162800  -0.005204   0.009735  24.084400   0.000985   0.008850  28.122900  -4.109110  -7.636160  35.087200  -0.005711   0.000072  23.368000  -0.003419  -0.000213  39.784000  -5.570200  -6.648540  60.161700  -0.000967   0.001163  40.067700   0.000746  -0.004083   1.291780   1.652490   1.666590   0.988139   0.179024  15.285000  -5.537700  -2.847700   3.982940  -0.000000   0.000000   0.000000   1.498420   0.743021  -8.155620  -0.259524   2.324330  -6.458060  -8.626600   1.043810  -0.940220   0.000000   0.000000   0.000000
  0.850465  90.063700   1.500950  -1.663710  -0.380886  -1.078130   0.126894   1.447590  -0.358869   0.262993   2.894360  -0.721291   2.197270   0.447388  -0.014046   3.610320   0.903550   4.746770  -2.694230   1.129560   4.106600 -73.934700  17.681300   2.253920  -4.678560  -7.305790 -16.487600  14.619600  -0.779015  12.454500  45.359000  34.179800 -72.903600 -16.214500   0.000331   0.000194  -3.107240   0.007728  -0.005165 -26.099200   7.308000 -14.556100 -22.118500  -0.000109   0.000109 -15.484200  -0.002638   0.000027 -28.169500   3.558310  -6.611070 -34.872100  -0.005234  -0.002666 -23.224800  -0.004936  -0.003075 -24.277900   2.807890  -6.198430 -24.429700   0.000254   0.000813 -16.270200   0.000000   0.000594 -26.984500   1.685140  -3.323720 -40.549500  -0.000453   0.000000 -27.006000  -0.001353  -0.000690  10.007500   2.324100   3.639950  69.406500   8.467500  -1.838270   2.229170  -4.967360  13.477600 -17.022200 -14.780400  -2.492870 -35.726000  29.511800  66.632200  31.618800   0.001921  -0.001059  10.817500   0.002266  -0.003474  31.888300   2.266110   3.636540  26.149300  -0.004076   0.002271  18.304600   0.002770   0.002006  28.366700  -2.979760  -5.499170  36.263200  -0.004916   0.009657  24.151300   0.000924   0.008771  28.135500  -4.113820  -7.640760  35.216000  -0.005477   0.000071  23.453800  -0.003308  -0.000213  39.842500  -5.581060  -6.648660  60.250400  -0.000967   0.001164  40.126800   0.000746  -0.004146   1.301340   1.704090   1.659210   0.984301   0.143236  15.293400  -5.533760  -2.835960   3.988690   0.000000   0.000000  -0.000000   1.505660   0.770351  -8.148690  -0.255591   2.330040  -6.465560  -8.627690   1.043650  -0.934912   0.000000   0.000000  -0.000000
  0.842372  90.063700   1.509540  -1.678120  -0.430610  -1.086690   0.117628   1.513840  -0.345006   0.244506   3.026950  -0.693486   2.220960   0.405509  -0.014112   3.649180   0.818868   4.788660  -2.672370   1.075020   4.064650 -73.859900  17.801600   2.166560  -4.679070  -7.365800 -16.481600  14.635300  -0.749253  12.473100  45.372200  34.195800 -72.922200 -16.226100   0.000318   0.000199  -3.113060   0.007718  -0.005175 -26.104200   7.324350 -14.584000 -22.125800  -0.000063   0.000145 -15.488100  -0.002587   0.000080 -28.167200   3.581960  -6.655080 -34.884000  -0.005204  -0.002648 -23.232800  -0.004946  -0.003057 -24.269200   2.818440  -6.224050 -24.422400   0.000324   0.000834 -16.265300   0.000000   0.000623 -26.997600   1.685120  -3.323720 -40.569400  -0.000435  -0.000000 -27.019200  -0.001327  -0.000623  10.029800   2.240720   3.612140  69.409700   8.566050  -1.839090   2.239050  -4.966620  13.512800 -16.995200 -14.774700  -2.470110 -35.690500  29.479200  66.633400  31.635000   0.001922  -0.001050  10.817500   0.002265  -0.003480  31.990600   2.285780   3.653390  26.233800  -0.004019   0.002173  18.363700   0.002748   0.001926  28.377800  -2.989070  -5.513710  36.400100  -0.004628   0.009579  24.242500   0.000803   0.008692  28.152700  -4.121830  -7.650000  35.392700  -0.005243   0.000071  23.571500  -0.003197  -0.000213  39.926500  -5.598550  -6.648860  60.377800  -0.000967   0.001165  40.211600   0.000745  -0.004252   1.318860   1.795050   1.648870   0.977771   0.085289  15.305700  -5.527160  -2.818880   3.998230   0.000000   0.000000   0.000000   1.520380   0.821662  -8.138700  -0.249916   2.335730  -6.477880  -8.631420   1.042820  -0.923711  -0.000000   0.000000   0.000000
  0.835501  90.063600   1.517420  -1.692540  -0.478957  -1.094690   0.112375   1.572110  -0.336935   0.234218   3.143540  -0.677338   2.238910   0.379601  -0.014096   3.678590   0.766445   4.838430  -2.669510   1.035520   4.033130 -73.792700  17.918300   2.084560  -4.675720  -7.412320 -16.472800  14.658400  -0.728015  12.472200  45.378200  34.220600 -72.961500 -16.218300   0.000299   0.000199  -3.110080   0.007704  -0.005186 -26.109500   7.346720 -14.623600 -22.134600   0.000014   0.000202 -15.494100  -0.002512   0.000138 -28.167800   3.601770  -6.691430 -34.913500  -0.005160  -0.002622 -23.252400  -0.004961  -0.003027 -24.270000   2.832540  -6.254620 -24.425200   0.000429   0.000870 -16.267200   0.000059   0.000666 -27.017400   1.685120  -3.317310 -40.599000  -0.000407   0.000047 -27.038900  -0.001267  -0.000559  10.035100   2.173760   3.601660  69.412300   8.654510  -1.838690   2.254120  -4.972460  13.547400 -16.939600 -14.769200  -2.439890 -35.675800  29.458600  66.625700  31.632900   0.001924  -0.001067  10.813700   0.002262  -0.003499  32.045800   2.302740   3.672550  26.279700  -0.004147   0.002074  18.395800   0.002724   0.001848  28.381300  -2.997890  -5.529160  36.444600  -0.006738   0.009600  24.272200   0.000644   0.008712  28.158500  -4.130330  -7.663910  35.449300  -0.005302   0.000071  23.609200  -0.003224  -0.000213  39.969200  -5.614100  -6.656230  60.443800  -0.000968   0.001165  40.255500   0.000745  -0.004358   1.335590   1.880980   1.644340   0.971486   0.032425  15.312800  -5.520490  -2.809290   4.006140   0.000000   0.000000   0.000000   1.537430   0.874049  -8.134040  -0.246358   2.335330  -6.487780  -8.638750   1.041020  -0.909420  -0.000000   0.000000   0.000000
